<svg xmlns="http://www.w3.org/2000/svg" viewBox="0 0 160 160"><defs><linearGradient id="b" x1="0" y1="1" x2="1" y2="0"><stop stop-color="#1578ff"/><stop offset="1" stop-color="#57d9ff"/></linearGradient></defs><rect width="160" height="160" rx="36" fill="#eef8ff"/><path d="M35 105c-14-2-23-12-23-25 0-15 12-27 28-27 5-18 21-31 41-31 23 0 42 18 43 41 14 2 24 13 24 27 0 16-13 29-30 29H38z" fill="url(#b)"/><path d="M48 108h20V92h20V76h20V60h18" fill="none" stroke="#fff" stroke-width="10" stroke-linejoin="round" stroke-linecap="round"/><path d="M115 49l15 11-15 11" fill="none" stroke="#fff" stroke-width="8" stroke-linecap="round" stroke-linejoin="round"/></svg>
